<svg width="522" height="153" viewBox="0 0 522 153" fill="none" xmlns="http://www.w3.org/2000/svg">
<path d="M162.173 46.0796H222.037L216.782 63.0912H201.26V126.157H181.736V63.0912H162.173V46.0796Z" fill="white"/>
<path d="M321.031 46.0796H380.895L375.64 63.0912H360.118V126.157H340.594V63.0912H321.031V46.0796Z" fill="white"/>
<path d="M225.99 71.551V126.157H244.866V71.551H225.99Z" fill="white"/>
<path d="M253.242 46.0796V126.157H272.118V105.218L277.842 99.6275L296.086 126.157H316.899L290.106 87.5884L293.022 84.7923L313.926 64.3667H291.151L272.118 83.2283V46.0796H253.242Z" fill="white"/>
<path d="M457.797 46.0796V126.157H476.673V105.218L482.397 99.6275L500.642 126.157H521.454L494.662 87.5884L497.578 84.7923L518.482 64.3667H495.707L476.673 83.2283V46.0796H457.797Z" fill="white"/>
<circle cx="235.428" cy="55.5175" r="9.43796" fill="white"/>
<path fill-rule="evenodd" clip-rule="evenodd" d="M413.135 77.6331C404.357 77.6331 397.24 84.7493 397.24 93.5277C397.24 102.306 404.357 109.422 413.135 109.422C421.913 109.422 429.03 102.306 429.03 93.5277C429.03 84.7493 421.913 77.6331 413.135 77.6331ZM380.164 93.5277C380.164 75.3183 394.926 60.5566 413.135 60.5566C431.344 60.5566 446.106 75.3183 446.106 93.5277C446.106 111.737 431.344 126.499 413.135 126.499C394.926 126.499 380.164 111.737 380.164 93.5277Z" fill="white"/>
<path d="M375.528 93.5277C375.528 75.3183 390.289 60.5566 408.499 60.5566C409.337 60.5566 410.168 60.5879 410.99 60.6494L410.69 60.6771C393.809 62.1164 380.557 76.2745 380.557 93.5277C380.557 110.838 393.897 125.033 410.858 126.392C410.91 126.396 410.962 126.4 411.013 126.404L410.928 126.411C410.126 126.469 409.316 126.499 408.499 126.499C390.289 126.499 375.528 111.737 375.528 93.5277Z" fill="#00F2EA"/>
<path d="M450.631 93.1857C450.631 111.395 435.869 126.157 417.66 126.157C416.822 126.157 415.991 126.125 415.168 126.064L415.469 126.036C432.35 124.597 445.602 110.439 445.602 93.1857C445.602 75.875 432.261 61.6802 415.301 60.3211C415.249 60.317 415.197 60.313 415.145 60.3091L415.23 60.3028C416.033 60.2443 416.843 60.2146 417.66 60.2146C435.869 60.2146 450.631 74.9763 450.631 93.1857Z" fill="#FF004F"/>
<path d="M52.5149 60.292V54.3412C50.4505 54.0127 48.365 53.8345 46.2749 53.808C36.4351 53.7845 26.8452 56.9057 18.9042 62.7162C10.9631 68.5267 5.08638 76.7225 2.13119 86.108C-0.824003 95.4936 -0.703026 105.578 2.47647 114.89C5.65597 124.202 11.7276 132.254 19.8058 137.873C13.7315 131.366 9.67 123.24 8.11126 114.477C6.55252 105.713 7.56318 96.6853 11.0213 88.4832C14.4794 80.2812 20.2372 73.255 27.6 68.2527C34.9627 63.2504 43.6157 60.4856 52.5149 60.292Z" fill="#00F2EA"/>
<path d="M53.638 127.519C59.0728 127.513 64.2956 125.41 68.2191 121.65C72.1426 117.889 74.4643 112.76 74.7009 107.33V6.68984H93.092C92.7168 4.58744 92.5364 2.45489 92.5531 0.319336H67.4058V100.858C67.2034 106.313 64.896 111.477 60.9679 115.268C57.0397 119.059 51.7961 121.181 46.3372 121.189C42.948 121.159 39.6141 120.327 36.6084 118.761C38.5561 121.459 41.114 123.659 44.0734 125.181C47.0329 126.703 50.3101 127.505 53.638 127.519Z" fill="#00F2EA"/>
<path d="M127.435 40.8344V35.2411C120.668 35.2409 114.051 33.2439 108.414 29.5002C113.354 35.2473 120.031 39.2298 127.435 40.8457V40.8344Z" fill="#00F2EA"/>
<path d="M108.414 29.5002C102.863 23.1762 99.8018 15.0483 99.8029 6.6333H93.092C93.9594 11.2848 95.7647 15.711 98.398 19.6423C101.031 23.5736 104.437 26.9277 108.408 29.5002H108.414Z" fill="#FF004F"/>
<path d="M46.2918 78.9716C41.5836 78.9979 37.0193 80.5967 33.3237 83.514C29.6282 86.4313 27.0135 90.4999 25.8949 95.0733C24.7763 99.6467 25.218 104.463 27.1498 108.756C29.0817 113.05 32.3928 116.575 36.5574 118.772C34.2798 115.626 32.9161 111.912 32.6169 108.039C32.3178 104.167 33.0948 100.287 34.8621 96.829C36.6295 93.3706 39.3184 90.468 42.6318 88.4419C45.9452 86.4158 49.7542 85.345 53.638 85.3478C55.7538 85.3701 57.8553 85.6968 59.878 86.3178V60.728C57.8121 60.4192 55.7268 60.2581 53.638 60.2458H52.5035V79.7034C50.4791 79.161 48.3868 78.9145 46.2918 78.9716Z" fill="#FF004F"/>
<path d="M127.435 40.8342V60.2918C114.905 60.2645 102.701 56.2952 92.5531 48.9463V100.075C92.5276 112.327 87.6423 124.069 78.9694 132.724C70.2965 141.379 58.5444 146.24 46.2918 146.24C36.8153 146.258 27.5667 143.334 19.8228 137.872C26.1373 144.665 34.3511 149.398 43.3942 151.456C52.4373 153.513 61.8904 152.8 70.5223 149.409C79.1541 146.017 86.5645 140.105 91.7882 132.441C97.0119 124.778 99.8067 115.72 99.8085 106.445V55.4756C109.992 62.7761 122.212 66.6914 134.741 66.6679V41.6114C132.286 41.606 129.837 41.3456 127.435 40.8342Z" fill="#FF004F"/>
<path d="M92.5532 100.086V48.9577C102.742 56.2635 114.971 60.1773 127.509 60.1444V40.6868C120.107 39.1248 113.413 35.1986 108.437 29.5002C104.466 26.9277 101.06 23.5736 98.4264 19.6423C95.7932 15.711 93.9879 11.2848 93.1205 6.6333H74.701V107.336C74.5218 111.719 72.9818 115.938 70.2951 119.405C67.6083 122.873 63.9081 125.418 59.7086 126.686C55.5092 127.954 51.019 127.883 46.8619 126.482C42.7049 125.081 39.0874 122.42 36.5121 118.869C32.3463 116.674 29.0335 113.15 27.1003 108.857C25.167 104.564 24.7243 99.7476 25.8425 95.1739C26.9607 90.6001 29.5756 86.5313 33.2715 83.6143C36.9675 80.6972 41.5325 79.0992 46.2409 79.0744C48.357 79.0917 50.4593 79.4185 52.4809 80.0444V60.5812C43.5329 60.7333 34.8225 63.4855 27.4116 68.5023C20.0007 73.519 14.2094 80.5835 10.7439 88.8346C7.27834 97.0856 6.28823 106.167 7.89427 114.971C9.50031 123.775 13.6331 131.921 19.7888 138.417C27.6068 143.692 36.8628 146.424 46.2919 146.24C58.5425 146.24 70.2929 141.381 78.9655 132.728C87.6381 124.076 92.5247 112.337 92.5532 100.086Z" fill="white"/>
</svg>
