<svg width="14" height="13" viewBox="0 0 14 13" fill="none" xmlns="http://www.w3.org/2000/svg">
<path d="M6.38099 0.150391C6.11931 0.150391 5.90718 0.362526 5.90718 0.624207V5.12547H1.40592C1.14424 5.12547 0.932098 5.3376 0.932098 5.59928V7.02074C0.932098 7.28242 1.14424 7.49455 1.40592 7.49455H5.90718V11.9958C5.90718 12.2575 6.11931 12.4696 6.38099 12.4696H7.80244C8.06412 12.4696 8.27626 12.2575 8.27626 11.9958V7.49455H12.7775C13.0392 7.49455 13.2513 7.28242 13.2513 7.02074V5.59928C13.2513 5.3376 13.0392 5.12547 12.7775 5.12547H8.27626V0.624207C8.27626 0.362526 8.06412 0.150391 7.80244 0.150391H6.38099Z" fill="white"/>
</svg>
