<svg width="20" height="21" viewBox="0 0 20 21" fill="none" xmlns="http://www.w3.org/2000/svg">
<path fill-rule="evenodd" clip-rule="evenodd" d="M13.9574 16.1373C12.5345 17.2011 10.7686 17.8313 8.85527 17.8313C4.1451 17.8313 0.326569 14.0128 0.326569 9.30263C0.326569 4.59245 4.1451 0.773926 8.85527 0.773926C13.5654 0.773926 17.384 4.59245 17.384 9.30263C17.384 11.4165 16.6149 13.3509 15.3413 14.8411L19.5555 19.0552C19.7406 19.2403 19.7406 19.5404 19.5555 19.7252L18.8855 20.3955C18.7004 20.5805 18.4003 20.5805 18.2155 20.3955L13.9574 16.1373ZM15.4887 9.30263C15.4887 12.9662 12.5188 15.9361 8.85527 15.9361C5.19175 15.9361 2.22184 12.9662 2.22184 9.30263C2.22184 5.63911 5.19175 2.66919 8.85527 2.66919C12.5188 2.66919 15.4887 5.63911 15.4887 9.30263Z" fill="#8A8B8F"/>
</svg>
